<?xml version="1.0" encoding="utf-8"?>
<!-- Generator: Adobe Illustrator 23.0.0, SVG Export Plug-In . SVG Version: 6.00 Build 0)  -->
<svg version="1.1" id="Capa_1" xmlns="http://www.w3.org/2000/svg" xmlns:xlink="http://www.w3.org/1999/xlink" x="0px" y="0px"
	 viewBox="0 0 511 511" style="enable-background:new 0 0 511 511;" xml:space="preserve">
<style type="text/css">
	.st0{fill:#855151;}
	.st1{fill:#FF646F;}
	.st2{fill:#FF4755;}
	.st3{fill:#FEF1DA;}
	.st4{fill:#FDE6BF;}
	.st5{fill:#EF717D;}
	.st6{fill:#D65A65;}
	.st7{fill:#A8D3D8;}
</style>
<path class="st0" d="M275.6,103.6c24-24.1,63-32.4,83-35.2c7.3-1,12.5,4.1,11.5,11.4c-2.7,20-10.7,59.1-34.7,83.2
	c-16.7,16.7-40.8,11.2-55.8-3.7C264.7,144.4,259,120.3,275.6,103.6z"/>
<path class="st1" d="M252.6,64.9c-30.1,0-51.6,14.5-51.6,43.8c0,29.2,18.6,64.1,48.7,64.2c30.1,0,60.2-34.8,60.3-64.1
	C309.9,79.6,282.7,64.9,252.6,64.9z"/>
<path class="st2" d="M252.6,64.9c-5.5,0-10.8,0.5-15.7,1.5c23.1,4.4,41.3,18.5,41.3,42.4c0,23.9-20.1,51.5-43.9,60.8
	c4.7,2.1,9.8,3.3,15.3,3.3c30.1,0,60.2-34.8,60.3-64.1C309.9,79.6,282.7,64.9,252.6,64.9z"/>
<path class="st3" d="M428.6,298.5l0-111.4c0-18.9-15.3-34.2-34.2-34.2H114.7c-18.9,0-34.2,15.3-34.2,34.2l0,111.4H428.6z"/>
<path class="st4" d="M428.6,187.1c0-18.9-15.3-34.2-34.2-34.2h-31.7c18.9,0,34.2,15.3,34.2,34.2l0,111.4h31.7L428.6,187.1z"/>
<path class="st5" d="M428.6,187.1c0-18.9-15.3-34.2-34.2-34.2H114.7c-18.9,0-34.2,15.3-34.2,34.2v31.1c11.2,5.3,20.5,16.1,38.9,16.1
	c24.9,0,25.9-19,45.1-19c19.1,0,20.4,19,45.1,19c24.9,0,25.9-19,45.1-19c19.2,0,20.2,19,45.1,19c24.9,0,25.9-19,45.1-19
	c19.2,0,20.2,19,45.1,19c18.9,0,27.6-11.1,38.9-16.3V187.1z"/>
<path class="st6" d="M396.9,187.1l0,46.6c14.1-2.3,21.9-11.2,31.7-15.7v-30.9c0-18.9-15.3-34.2-34.2-34.2h-31.7
	C381.6,152.9,396.9,168.2,396.9,187.1z"/>
<path class="st3" d="M463.1,461.3l0-133.5c0-22.6-18.3-41-41-41H86.9c-22.6,0-41,18.3-41,41l0,133.5H463.1z"/>
<path class="st4" d="M463.1,327.7c0-22.6-18.3-41-41-41h-31.7c22.6,0,41,18.3,41,41v133.5h31.7L463.1,327.7z"/>
<path class="st5" d="M463.1,327.7c0-22.6-18.3-41-41-41H86.9c-22.6,0-41,18.3-41,41V365c13.4,6.4,24.6,19.3,46.6,19.3
	c29.8,0,31-22.7,54-22.7c22.8,0,24.4,22.7,54,22.7c29.8,0,31-22.7,54-22.7c23,0,24.2,22.7,54,22.7c29.8,0,31-22.7,54-22.7
	c23,0,24.2,22.7,54,22.7c22.6,0,33.1-13.3,46.6-19.5V327.7z"/>
<path class="st6" d="M463.1,327.7c0-22.6-18.3-41-41-41h-25.1c25.1,0,34.4,24.8,34.4,41v54.4c13.1-4,21.5-12.7,31.7-17.4V327.7z"/>
<path class="st7" d="M486.9,480.3H22.1c-8.6,0-15.6-7-15.6-15.6c0-8.6,7-15.6,15.6-15.6h464.8c8.6,0,15.6,7,15.6,15.6
	C502.5,473.3,495.5,480.3,486.9,480.3z"/>
<path d="M238.7,86.1c-12.1,4.4-19.1,14.5-19.1,27.7c0,9.9,15,10,15,0c0-6.9,3-11.4,9.2-13.6C253.1,96.7,248,82.7,238.7,86.1z"/>
<path d="M486.9,441.6h-16.4l0-113.9c0-21.9-14.6-40.4-34.5-46.4l0-94.3c0-23-18.7-41.7-41.7-41.7h-36.7
	c12.8-23.1,17.9-49.5,19.9-64.6c1.6-12.3-7.8-21.5-19.9-19.8c-14,1.9-34.2,6.1-53.6,14.8C293.3,65,278,59.6,262.8,58
	c4.7-9.4,13.3-18.1,28.9-19.1c9.9-0.6,9-15.5-0.9-14.9c-27.3,1.7-39.1,19.9-44.1,33.6c-32,2-53.2,20.4-53.2,51.1
	c0,12.4,3,25.3,8.4,36.7h-34.1c-9.9,0-9.9,15,0,15h226.7c14.7,0,26.7,12,26.7,26.7v26.4c-10,5.8-17.2,13.3-31.4,13.3
	c-21.3,0-22.3-19-45.1-19c-22.7,0-23.7,19-45.1,19c-21.3,0-22.3-19-45.1-19c-22.7,0-23.7,19-45.1,19c-21.1,0-22.5-19-45.1-19
	c-22.7,0-23.7,19-45.1,19c-13.8,0-21.5-7.3-31.4-13.1v-26.6c0-14.7,12-26.7,26.7-26.7H138c9.9,0,9.9-15,0-15h-23.4
	c-23,0-41.7,18.7-41.7,41.7v94.3c-19.9,6-34.5,24.5-34.5,46.4l0,113.9H22.1C9.4,441.6-1,452-1,464.7c0,12.7,10.4,23.1,23.1,23.1
	h464.8c12.7,0,23.1-10.4,23.1-23.1C510,452,499.6,441.6,486.9,441.6z M305.4,145.4c5.8-8.9-6.7,6.4,55.9-57.2
	c-2.9,16.1-8.9,38.9-21.1,57.2H305.4z M351.1,77.2l-33.8,33.8c0.3-7.8-1-15.6-4.4-22.7C326.2,82.6,339.8,79.2,351.1,77.2z
	 M208.4,108.7c0-25.3,18.7-36.3,44.1-36.3h0.1c24.8,0,49.8,11.3,49.8,36.4c0,11.6-6,25.4-15.7,36.6h-67.9
	C212.3,134.8,208.4,121.4,208.4,108.7z M86.9,294.2h270.8c9.9,0,9.9-15,0-15H87.9l0-47.9c7.8,4.9,17.4,10.4,31.4,10.4
	c27,0,30.6-19,45.1-19c14.5,0,18.1,19,45.1,19c27.1,0,30.5-19,45.1-19c14.6,0,17.9,19,45.1,19c27.1,0,30.5-19,45.1-19
	c14.6,0,17.9,19,45.1,19c14.3,0,23.8-5.6,31.4-10.5l0,48.1h-32.9c-9.9,0-9.9,15,0,15h33.9c18.5,0,33.5,15,33.5,33.5l0,32.5
	c-12.3,7-21.2,16.6-39.1,16.6c-26.5,0-27.3-22.7-54-22.7c-26.6,0-27.6,22.7-54,22.7c-26.5,0-27.2-22.7-54-22.7
	c-26.7,0-27.5,22.7-54,22.7c-26.3,0-27.5-22.7-54-22.7c-26.6,0-27.6,22.7-54,22.7c-17.4,0-26.8-9.4-39.1-16.3l0-32.8
	C53.4,309.3,68.5,294.2,86.9,294.2z M53.4,378.1c9.5,6.1,21.4,13.7,39.1,13.7c32.1,0,35.6-22.7,54-22.7c18.1,0,22.2,22.7,54,22.7
	c32.1,0,35.6-22.7,54-22.7c18.3,0,22,22.7,54,22.7c32.1,0,35.6-22.7,54-22.7c18.3,0,22,22.7,54,22.7c18.1,0,29.7-7.7,39-13.8
	c0,0,0.1,0,0.1-0.1l0,63.7H53.4L53.4,378.1z M486.9,472.8H22.1c-10.7,0-10.7-16.2,0-16.2h464.8C497.7,456.6,497.6,472.8,486.9,472.8
	z"/>
</svg>
