<?xml version="1.0" encoding="utf-8"?>
<!-- Generator: Adobe Illustrator 23.0.0, SVG Export Plug-In . SVG Version: 6.00 Build 0)  -->
<svg version="1.1" id="Capa_1" xmlns="http://www.w3.org/2000/svg" xmlns:xlink="http://www.w3.org/1999/xlink" x="0px" y="0px"
	 viewBox="0 0 84.3 84.3" style="enable-background:new 0 0 84.3 84.3;" xml:space="preserve">
<style type="text/css">
	.st0{opacity:0.6;}
</style>
<g class="st0">
	<path d="M66.3,49.2c-1-1.1-2.2-1.6-3.6-1.6c-1.6,0-2.8,0.5-3.5,1.6c-0.7,1.1-1.3,2.4-1.8,4.1c-1.2,3.6-2.9,6.3-5.2,8.2
		c-2.1,1.7-4.6,2.6-7.6,2.7L55,24.6c0.7,1,1.4,2.2,2,3.5c0.9,1.9,1.7,3.3,2.5,4.1s1.9,1.2,3.3,1.2c1.3,0,2.5-0.6,3.4-1.7
		c0.9-1.1,1.4-2.4,1.4-3.9c0-2.7-1-5.6-2.9-8.6c-1.6-2.5-3.8-4.7-6.5-6.5l2.2-8.4c0.4-1.4-0.5-2.8-1.8-3.2c-1.4-0.4-2.8,0.5-3.2,1.8
		L53.5,10C52,9.4,50.3,9,48.6,8.7l1.4-5.4c0.4-1.4-0.5-2.8-1.8-3.2c-1.4-0.4-2.8,0.5-3.2,1.8l-1.7,6.4c-3.6,0.1-7,0.8-10.2,2.3
		c-3.4,1.5-6.3,3.7-8.8,6.6s-4.4,6.4-5.8,10.5c-1.3,4.1-2,8.7-2,13.9c0,3.2,0.3,6.2,0.8,9c0.5,2.8,1.3,5.5,2.4,8
		c1.1,2.5,2.4,4.7,3.9,6.8c1.2,1.5,2.4,2.8,3.7,3.9l-2.9,11.1c-0.4,1.4,0.5,2.8,1.8,3.2c0.2,0.1,0.4,0.1,0.7,0.1
		c1.1,0,2.2-0.8,2.5-1.9l2.5-9.4c1.3,0.6,2.6,1.1,4.1,1.5c0.2,0.1,0.5,0.1,0.7,0.2l-1.9,7.3c-0.4,1.4,0.5,2.8,1.8,3.2
		c0.2,0.1,0.4,0.1,0.7,0.1c1.1,0,2.2-0.8,2.5-1.9l2.1-7.9c0.8,0,1.6,0.1,2.4,0.1c4,0,7.5-0.7,10.5-2.1s5.5-3.3,7.4-5.6
		s3.3-4.6,4.3-7c0.9-2.4,1.4-4.6,1.4-6.6C67.8,51.6,67.3,50.3,66.3,49.2z M30.5,54.6c-1.3-3.3-1.9-7.5-1.9-12.4
		c0-7.5,1.4-13.2,4.2-17.3c2.1-3,4.6-5,7.7-5.9l-9.7,36.7C30.8,55.4,30.6,55,30.5,54.6z M35.6,61.8c-0.3-0.2-0.5-0.4-0.8-0.6
		L46,18.7c1.8,0.2,3.4,0.8,4.8,1.6L39.4,63.7C38,63.3,36.7,62.6,35.6,61.8z"/>
</g>
</svg>
