<?xml version="1.0" encoding="utf-8"?>
<!-- Generator: Adobe Illustrator 23.0.0, SVG Export Plug-In . SVG Version: 6.00 Build 0)  -->
<svg version="1.1" id="Capa_1" xmlns="http://www.w3.org/2000/svg" xmlns:xlink="http://www.w3.org/1999/xlink" x="0px" y="0px"
	 viewBox="0 0 511 511" style="enable-background:new 0 0 511 511;" xml:space="preserve">
<style type="text/css">
	.st0{fill-rule:evenodd;clip-rule:evenodd;fill:#65B7DC;}
	.st1{fill-rule:evenodd;clip-rule:evenodd;fill:#C4DADC;}
	.st2{fill-rule:evenodd;clip-rule:evenodd;fill:#FFCB7C;}
	.st3{fill-rule:evenodd;clip-rule:evenodd;fill:#FFC15A;}
</style>
<g>
	<path class="st0" d="M190,96.3c-51.1,0-50.7,59.6-24.7,65.7l4.5,0.5c49.2,6.9,123.1-5.9,174.9-25.9c1.5-0.7,3.1-1.2,4.5-1.7
		c25-12.3,16.5-64.8-32.3-54.1c14.5-14.4,9.7-53.7-15-70.9C299.7,65.4,237.1,96.3,190,96.3z"/>
	<path class="st1" d="M382.5,202.3c-0.1,0.1-0.2,0.1-0.3,0.1C382.3,202.4,382.4,202.3,382.5,202.3z M344.7,136.7
		c-51.8,20-125.8,32.8-174.9,25.9c-1.6,0-3.1-0.2-4.5-0.5l-25.9-2.9c-41-4.7-41.2,62.8,0,62.8c36.3,7.8,170.9,5.4,243.1-19.6
		c41.2-13.5,18.2-84.1-33.3-67.3C347.8,135.7,346.3,136.2,344.7,136.7z"/>
	<path class="st2" d="M67.1,331.7L99,475.6c2.1,13.8,11.4,25.4,25.4,25.4h51.4l-16.7-183.6c-0.1-0.7-0.1-1.7-0.1-2.8
		c-0.1-1-0.2-2-0.3-3c-3-23.1-22.7-41-46.6-41c-14.5,0-27.3,6.5-36,16.7c-6.9,8.2-11.1,18.8-11.1,30.4
		C64.9,322.6,65.7,327.3,67.1,331.7z"/>
	<path class="st3" d="M348,314.2c0,0.9,0,1.8-0.1,2.6C348,315.9,348,315.1,348,314.2z M348,313l-16.4,188h51
		c13.9,0,23.3-11.6,25.4-25.4l32-144.5c1.4-4.5,2.2-9.3,2.2-14.3v-0.3c-0.1-7.6-1.9-14.8-5.2-21.2c-7.8-15.2-23.6-25.7-41.9-25.7
		c-24.3,0-44.2,18.4-46.8,41.9c-0.1,0.9-0.2,1.8-0.2,2.6C348,313.8,348,313.4,348,313z"/>
	<path class="st3" d="M159.1,317.4L175.7,501h77.8V312.7c-0.2,1.5-0.3,3-0.3,4.4c0-1.9-0.1-3.7-0.4-5.5
		c-2.9-23.3-22.7-41.3-46.7-41.3c-38.3,0-46,27.7-47,41.3c-0.1,1.1-0.1,2.1-0.1,3C159,315.5,159.1,316.5,159.1,317.4z"/>
	<path class="st2" d="M253.5,312.7V501h78L348,313c-0.1-0.5-0.1-1-0.2-1.4c-2.5-18-24.4-40.8-47.5-41.3
		c-26.5-0.5-43.6,23.1-46.6,41.3C253.6,312,253.6,312.3,253.5,312.7z"/>
	<path class="st0" d="M127.1,219.6c-72.8-10.5-84.6,52.8-58.5,80c1.9-4.5,4.4-8.6,7.5-12.2c8.6-10.2,21.5-16.7,36-16.7
		c23.9,0,43.6,17.9,46.6,41h0.5c1-13.6,8.7-41.3,47-41.3c24,0,43.8,18,46.7,41.3h0.8c3-18.2,20.1-41.8,46.6-41.3
		c23.1,0.5,45,23.3,47.5,41.3h0.5c2.6-23.6,22.5-41.9,46.8-41.9c18.3,0,34.1,10.4,41.9,25.7c38.9-35.7,17.7-116.1-54.4-93.1
		c-72.2,25-206.8,27.4-243.1,19.6C134.8,221.9,130.7,221.1,127.1,219.6z"/>
</g>
<path d="M448.7,297.5c19.5-22.1,23.4-55.8,8.6-81.2c-10-17.2-26.4-26.8-46.4-28c0.9-2.3,1.6-4.7,2-7.2c3.3-17.3-4-36.6-18.1-48.1
	c-6.9-5.6-15.1-9.1-23.8-10.2c2.1-6.7,2.4-14.3,0.6-22c-3.8-15.8-16.7-29.7-38.1-31.3c1.3-5.7,1.7-12,1.1-18.7
	c-1.8-20.2-11.9-38.6-27.2-49.2c-3-2.1-6.9-2.4-10.1-0.7c-3.3,1.6-5.4,4.9-5.5,8.5c-1.1,27.8-19.4,45.9-34.7,56.1
	c-19.3,13-44.4,20.7-67.2,20.7c-20.7,0-32.9,8.4-39.4,15.5c-8.1,8.7-12.5,20.3-12.5,32.7c0,5.3,0.8,10.2,2.3,14.7
	c-14.3-1.5-26.8,3.9-34.4,15c-8.6,12.5-9.6,30.2-2.9,44.6c-30.5,2.8-44.3,20.1-49.5,29.2c-11.4,20-9.6,45.8,3.9,63.7
	c-1.5,5.1-2.3,10.5-2.3,16.1c0,5.6,0.8,11.2,2.4,16.6l8.8,39.6c1.2,5.4,6.5,8.8,11.9,7.6c5.4-1.2,8.8-6.5,7.6-11.9l-8.9-40
	c-0.1-0.3-0.1-0.5-0.2-0.8c-1.1-3.6-1.7-7.3-1.7-11c0-5,1-9.8,2.8-14.1c0.1-0.1,0.1-0.2,0.1-0.4c5.7-13.3,18.8-22.7,34.2-22.7
	c19.4,0,35.5,15.1,37,34.3c0,1.3,0.1,2.5,0.1,3.5c0,0.2,0.1,0.4,0.1,0.6l15.6,172.1h-40.4c-9.6,0-14.4-9.1-15.5-16.9
	c0-0.2-0.1-0.4-0.1-0.7l-5.7-25.7c-1.2-5.4-6.5-8.8-11.9-7.6c-5.4,1.2-8.8,6.5-7.6,11.9l5.6,25.4c3.1,19.8,17.6,33.5,35.2,33.5h51.3
	h0h0h155.8h0h0h50.9c17.6,0,32.1-13.8,35.2-33.5l31.9-143.8c1.7-5.4,2.5-11.1,2.5-16.8v-0.4C452,309.8,450.8,303.4,448.7,297.5z
	 M165.1,115.5c5.7-6.1,14-9.1,24.9-9.1c26.6,0,55.9-9,78.4-24.1c20-13.5,33.7-31,39.8-50.7c4,7,6.1,14.7,6.7,21.2
	c0.8,9.1-1.1,17.2-5,21.1c-3.1,3.1-3.8,7.9-1.7,11.8c2.1,3.9,6.6,5.9,10.9,5c26.2-5.7,32.1,10.1,33.3,15c1.8,7.6-0.4,16.6-7.1,20.2
	c-1.4,0.5-2.7,1-4.1,1.5c0,0,0,0,0,0c-54.2,20.9-125.7,31.6-170,25.3c0,0-0.1,0-0.1,0c0,0-0.1,0-0.1,0l-3.6-0.4
	c-6.1-1.8-9.3-10-9.3-17.8C157.9,127.3,160.5,120.4,165.1,115.5z M122.3,175.4c3.5-5.1,8.8-7.2,16-6.4l25.5,2.9
	c1.7,0.4,3.4,0.5,5.2,0.6c9.4,1.3,19.7,1.9,30.7,1.9c45.3,0,101.8-10.5,148.2-28.3c1.7-0.5,3.4-1.1,5-1.8
	c14.3-4.5,23.8-0.3,29.5,4.3c8.4,6.9,13,18.7,11,28.9c-1,5.3-4.2,12.2-13.9,15.3c-0.1,0-0.1,0-0.1,0c0,0,0,0-0.1,0c0,0-0.1,0-0.1,0
	c0,0,0,0,0,0c0,0,0,0,0,0c-31,10.7-78,18.4-132.2,21.5c-51.2,3-90.5,0.9-105.4-2.3c-4-0.9-7.9-1.7-11.6-2.3
	c-4.2-2.1-6.8-5.4-8.4-8.4C117.3,193.3,117.6,182.4,122.3,175.4z M243.6,491.1h-58.7L169,316.5c0,0,0-0.1,0-0.1c0-0.7,0-1.4-0.1-2.1
	c0.1-5.4,1.8-16.1,8.8-23.8c6.2-6.8,15.8-10.3,28.4-10.3c20.3,0,37,16.6,37.1,36.9c0,0.8,0.1,1.6,0.3,2.4V491.1z M322.4,491.1h-58.9
	V313.5c1.1-6.8,5-16,12.4-23.2c4.8-4.7,12.9-10.3,24.2-10.1c9.6,0.2,20.2,5.8,28.4,15c5.3,5.9,8.8,12.6,9.5,17.8L322.4,491.1z
	 M432.1,316.8c0,3.8-0.6,7.6-1.7,11.3c-0.1,0.3-0.2,0.6-0.2,0.8l-32,144.5c-0.1,0.2-0.1,0.4-0.1,0.7c-1.3,8.4-6.6,16.9-15.5,16.9
	h-40.1l14.9-170.9c0.3-0.8,0.5-1.6,0.5-2.4c0.1-1.1,0.1-2.2,0.1-3.3c1.3-19.4,17.4-34.8,37-34.8c20.3,0,37,16.6,37.1,36.9V316.8z
	 M437.8,279.1c-10.5-11.9-25.8-19.4-42.7-19.4c-20.2,0-38,10.6-48.1,26.5c-1.1-1.4-2.3-2.9-3.5-4.3c-12-13.4-27.6-21.3-42.9-21.6
	c-14.4-0.3-27.8,5.1-38.6,15.7c-3.1,3-5.8,6.3-8.2,9.9c-10.2-15.4-27.8-25.7-47.6-25.7c-18.4,0-33,5.6-43.1,16.8
	c-2,2.2-3.7,4.4-5.2,6.8c-10.4-14.1-27.1-23.2-45.8-23.2c-17.5,0-33.1,7.9-43.6,20.3c-4-10.5-3.4-23.1,2.3-33
	c8.8-15.5,28.2-22,53.9-18.6c4.2,1.6,8.8,2.4,13.7,2.6c12.9,2.6,34.9,4,60.7,4c15.4,0,32.1-0.5,49-1.5c32.4-1.9,93.1-7.3,137.2-22.5
	c0.1,0,0.2-0.1,0.3-0.1c24.6-7.8,44.5-2.5,54.5,14.6C448.3,240.5,448.9,262.3,437.8,279.1z"/>
<path d="M86.3,421.4c5.5-0.8,9.2-5.8,8.5-11.3l0-0.2c-0.8-5.5-5.8-9.2-11.3-8.5c-5.5,0.8-9.2,5.8-8.5,11.3l0,0.2
	c0.7,5,5,8.6,9.9,8.6C85.4,421.5,85.8,421.4,86.3,421.4z"/>
</svg>
