<svg viewBox="-103 0 512 512.003" xmlns="http://www.w3.org/2000/svg"><path d="m270.347656 406.109375h-195.085937c-6.003907 0-10.871094-4.867187-10.871094-10.871094v-13.40625c0-23.746093 19.25-43 43-43h130.832031c23.746094 0 43 19.253907 43 43v13.40625c-.003906 6.003907-4.871094 10.871094-10.875 10.871094zm0 0" fill="#ffcd6b"/><path d="m238.222656 338.832031h-30c23.746094 0 42.996094 19.253907 42.996094 43v13.40625c0 6.003907-4.867188 10.871094-10.871094 10.871094h30c6.003906 0 10.871094-4.867187 10.871094-10.871094v-13.40625c0-23.746093-19.25-43-42.996094-43zm0 0" fill="#f2ac4b"/><path d="m75.261719 437.222656h195.085937c6.003906 0 10.871094 4.867188 10.871094 10.871094v13.40625c0 23.746094-19.25 43-42.996094 43h-130.832031c-23.75 0-43-19.25-43-43v-13.40625c0-6 4.867187-10.871094 10.871094-10.871094zm0 0" fill="#ffcd6b"/><path d="m270.347656 437.222656h-30c6.003906 0 10.871094 4.867188 10.871094 10.871094v13.40625c0 23.746094-19.25 43-42.996094 43h30c23.746094 0 42.996094-19.25 42.996094-43v-13.40625c0-6.003906-4.867188-10.871094-10.871094-10.871094zm0 0" fill="#f2ac4b"/><path d="m248.144531 437.222656h-150.675781c-8.578125 0-15.53125-6.953125-15.53125-15.53125v-.050781c0-8.578125 6.953125-15.53125 15.53125-15.53125h150.675781c8.574219 0 15.53125 6.953125 15.53125 15.53125v.050781c0 8.578125-6.957031 15.53125-15.53125 15.53125zm0 0" fill="#ac6a51"/><path d="m248.144531 406.109375h-30c8.578125 0 15.53125 6.953125 15.53125 15.53125v.054687c0 8.574219-6.953125 15.53125-15.53125 15.53125h30c8.578125 0 15.53125-6.953124 15.53125-15.53125v-.054687c0-8.578125-6.957031-15.53125-15.53125-15.53125zm0 0" fill="#945b44"/><path d="m213.460938 240.441406h-195.089844c-6.003906 0-10.871094-4.867187-10.871094-10.871094v-13.40625c0-23.746093 19.253906-43 43-43h130.832031c23.746094 0 43 19.253907 43 43v13.40625c0 6.003907-4.867187 10.871094-10.871093 10.871094zm0 0" fill="#ef717d"/><path d="m18.371094 271.558594h195.089844c6.003906 0 10.871093 4.867187 10.871093 10.871094v13.40625c0 23.746093-19.253906 43-43 43h-130.832031c-23.746094 0-43-19.253907-43-43v-13.40625c0-6.003907 4.867188-10.871094 10.871094-10.871094zm0 0" fill="#ef717d"/><path d="m191.253906 271.558594h-150.675781c-8.578125 0-15.53125-6.953125-15.53125-15.53125v-.054688c0-8.578125 6.953125-15.53125 15.53125-15.53125h150.675781c8.578125 0 15.53125 6.953125 15.53125 15.53125v.054688c0 8.578125-6.953125 15.53125-15.53125 15.53125zm0 0" fill="#ac6a51"/><path d="m181.332031 173.167969h-30.375c23.746094 0 43 19.25 43 42.996093v13.40625c0 6.003907-4.867187 10.871094-10.871093 10.871094h30.375c6.003906 0 10.871093-4.867187 10.871093-10.871094v-13.40625c0-23.746093-19.253906-42.996093-43-42.996093zm0 0" fill="#d65a65"/><path d="m213.460938 271.558594h-30.378907c6.003907 0 10.871094 4.867187 10.871094 10.871094v13.40625c0 23.746093-19.25 43-42.996094 43h30.375c23.746094 0 43-19.253907 43-43v-13.40625c0-6.003907-4.867187-10.871094-10.871093-10.871094zm0 0" fill="#d65a65"/><path d="m191.253906 240.441406h-30.375c8.578125 0 15.53125 6.953125 15.53125 15.53125v.054688c0 8.578125-6.953125 15.53125-15.53125 15.53125h30.375c8.578125 0 15.53125-6.953125 15.53125-15.53125v-.054688c0-8.578125-6.953125-15.53125-15.53125-15.53125zm0 0" fill="#945b44"/><path d="m286.628906 74.777344h-195.085937c-6.003907 0-10.871094-4.867188-10.871094-10.871094v-13.40625c0-23.746094 19.25-43 43-43h130.832031c23.746094 0 42.996094 19.25 42.996094 43v13.40625c0 6-4.867188 10.871094-10.871094 10.871094zm0 0" fill="#65b7dc"/><path d="m91.542969 105.890625h195.085937c6.003906 0 10.871094 4.867187 10.871094 10.871094v13.40625c0 23.746093-19.25 43-43 43h-130.832031c-23.746094 0-42.996094-19.253907-42.996094-43v-13.40625c0-6.003907 4.867187-10.871094 10.871094-10.871094zm0 0" fill="#65b7dc"/><path d="m254.503906 7.5h-30c23.746094 0 42.996094 19.25 42.996094 43v13.40625c0 6.003906-4.867188 10.871094-10.871094 10.871094h30c6.003906 0 10.871094-4.867188 10.871094-10.871094v-13.40625c0-23.75-19.25-43-42.996094-43zm0 0" fill="#47a4cc"/><path d="m286.628906 105.890625h-30c6.003906 0 10.871094 4.867187 10.871094 10.871094v13.40625c0 23.746093-19.25 43-43 43h30c23.75 0 43-19.253907 43-43v-13.40625c0-6.003907-4.867188-10.871094-10.871094-10.871094zm0 0" fill="#47a4cc"/><path d="m264.421875 105.890625h-150.671875c-8.578125 0-15.53125-6.953125-15.53125-15.53125v-.054687c0-8.574219 6.953125-15.53125 15.53125-15.53125h150.671875c8.578125 0 15.53125 6.953124 15.53125 15.53125v.054687c0 8.578125-6.953125 15.53125-15.53125 15.53125zm0 0" fill="#ac6a51"/><path d="m264.421875 74.777344h-30c8.578125 0 15.53125 6.953125 15.53125 15.53125v.050781c0 8.578125-6.953125 15.53125-15.53125 15.53125h30c8.578125 0 15.53125-6.953125 15.53125-15.53125v-.050781c0-8.578125-6.953125-15.53125-15.53125-15.53125zm0 0" fill="#945b44"/><path d="m305 63.902344v-13.402344c0-27.847656-22.652344-50.5-50.496094-50.5h-130.835937c-27.84375 0-50.496094 22.652344-50.496094 50.5v13.40625c0 10.128906 8.242187 18.371094 18.371094 18.371094h.632812c-.941406 2.515625-1.457031 5.238281-1.457031 8.082031 0 2.824219.511719 5.53125 1.445312 8.03125h-.621093c-10.128907 0-18.371094 8.242187-18.371094 18.371094v13.40625c0 13.828125 5.589844 26.371093 14.625 35.5h-37.296875c-27.84375 0-50.5 22.652343-50.5 50.5v13.40625c0 10.128906 8.242188 18.371093 18.375 18.371093h.628906c-.9375 2.515626-1.457031 5.238282-1.457031 8.082032 0 2.824218.515625 5.53125 1.449219 8.03125h-.621094c-10.132812 0-18.375 8.242187-18.375 18.371094v13.40625c0 27.84375 22.65625 50.5 50.5 50.5h21.015625c-9.035156 9.128906-14.625 21.671874-14.625 35.5v13.402343c0 10.132813 8.242187 18.371094 18.371094 18.371094h.632812c-.941406 2.519531-1.457031 5.242187-1.457031 8.085937 0 2.824219.511719 5.527344 1.445312 8.03125h-.621093c-10.128907 0-18.371094 8.242188-18.371094 18.371094v13.40625c0 27.84375 22.652344 50.5 50.5 50.5h130.832031c27.84375 0 50.496094-22.652344 50.496094-50.5v-13.40625c0-10.128906-8.238281-18.371094-18.371094-18.371094h-.628906c.9375-2.515624 1.457031-5.238281 1.457031-8.085937 0-2.824219-.515625-5.527344-1.449219-8.03125h.621094c10.132813 0 18.371094-8.238281 18.371094-18.371094v-13.402343c0-27.847657-22.652344-50.5-50.496094-50.5h-21.015625c9.035157-9.128907 14.625-21.671876 14.625-35.5v-13.40625c0-10.128907-8.242187-18.371094-18.371093-18.371094h-.632813c.9375-2.515625 1.457031-5.238282 1.457031-8.082032 0-2.824218-.515625-5.53125-1.449218-8.03125h.625c10.128906 0 18.371093-8.242187 18.371093-18.371093v-13.40625c0-13.828125-5.589843-26.371094-14.625-35.5h37.296875c27.84375 0 50.496094-22.652344 50.496094-50.5v-13.40625c0-10.128907-8.242188-18.371094-18.371094-18.371094h-.632812c.941406-2.515625 1.457031-5.238281 1.457031-8.082031 0-2.824219-.511719-5.53125-1.445313-8.03125h.621094c10.128906 0 18.371094-8.242188 18.371094-18.375zm-216.828125 0v-13.402344c0-19.574219 15.925781-35.5 35.496094-35.5h130.835937c19.570313 0 35.496094 15.925781 35.496094 35.5v13.40625c0 1.859375-1.511719 3.371094-3.371094 3.371094h-195.085937c-1.859375 0-3.371094-1.515625-3.371094-3.375zm185.546875 384.195312v13.40625c0 19.570313-15.921875 35.496094-35.496094 35.496094h-130.832031c-19.574219 0-35.5-15.921875-35.5-35.496094v-13.40625c0-1.859375 1.515625-3.375 3.371094-3.375h195.085937c1.859375 0 3.371094 1.515625 3.371094 3.375zm0-66.265625v13.40625c0 1.859375-1.511719 3.371094-3.371094 3.371094h-126.847656c-4.144531 0-7.5 3.359375-7.5 7.5s3.355469 7.5 7.5 7.5h104.644531c4.429688 0 8.03125 3.601563 8.03125 8.082031 0 4.429688-3.605469 8.03125-8.03125 8.03125h-150.675781c-4.429688 0-8.03125-3.601562-8.03125-8.082031 0-4.429687 3.601562-8.03125 8.03125-8.03125h14.28125c4.140625 0 7.5-3.359375 7.5-7.5s-3.359375-7.5-7.5-7.5h-36.488281c-1.855469 0-3.371094-1.511719-3.371094-3.371094v-13.40625c0-19.574219 15.925781-35.5 35.5-35.5h130.832031c19.574219 0 35.496094 15.925781 35.496094 35.5zm-56.886719-99.402343v13.40625c0 19.574218-15.925781 35.5-35.5 35.5h-130.832031c-19.574219 0-35.5-15.925782-35.5-35.5v-13.40625c0-1.859376 1.511719-3.371094 3.371094-3.371094h195.089844c1.855468 0 3.371093 1.511718 3.371093 3.371094zm0-66.265626v13.40625c0 1.859376-1.515625 3.371094-3.371093 3.371094h-37.710938c-4.144531 0-7.5 3.359375-7.5 7.5 0 4.144532 3.355469 7.5 7.5 7.5h15.503906c4.425782 0 8.03125 3.605469 8.03125 8.085938 0 4.425781-3.605468 8.03125-8.03125 8.03125h-150.675781c-4.429687 0-8.03125-3.605469-8.03125-8.085938 0-4.425781 3.605469-8.03125 8.03125-8.03125h103.046875c4.140625 0 7.5-3.355468 7.5-7.5 0-4.140625-3.359375-7.5-7.5-7.5h-125.253906c-1.859375 0-3.371094-1.511718-3.371094-3.371094v-13.40625c0-19.570312 15.925781-35.496093 35.5-35.496093h130.832031c19.574219 0 35.5 15.921875 35.5 35.496093zm55.621094-125.804687c0 4.429687-3.601563 8.03125-8.03125 8.03125h-89.003906c-4.144531 0-7.5 3.359375-7.5 7.5s3.355469 7.5 7.5 7.5h111.210937c1.859375 0 3.371094 1.511719 3.371094 3.371094v13.40625c0 19.574219-15.925781 35.5-35.496094 35.5h-130.835937c-19.570313 0-35.496094-15.925781-35.496094-35.5v-13.40625c0-1.859375 1.511719-3.371094 3.371094-3.371094h52.539062c4.144531 0 7.5-3.359375 7.5-7.5s-3.355469-7.5-7.5-7.5h-30.332031c-4.429688 0-8.03125-3.601563-8.03125-8.082031 0-4.429688 3.601562-8.03125 8.03125-8.03125h150.671875c4.429687 0 8.03125 3.601562 8.03125 8.082031zm0 0"/></svg>